<svg width="18" height="18" fill="none" xmlns="http://www.w3.org/2000/svg"><path d="M0 9.108C.228 5.178 1.95 2.31 5.499.79c3.313-1.421 6.468-.901 9.277 1.369 1.694 1.368 2.694 3.183 3.072 5.323.352 1.989.046 3.89-.884 5.683a.626.626 0 00-.05.525c.352 1.117.688 2.24 1.037 3.358.09.288.064.541-.161.752-.236.221-.5.238-.796.117-1.005-.41-2.015-.806-3.019-1.217-.138-.057-.239-.053-.367.024-1.545.927-3.224 1.341-5.022 1.267-4.031-.166-7.525-3.127-8.34-7.085C.118 10.282.072 9.642 0 9.108zm16.337 7.15c-.026-.097-.04-.153-.057-.21-.236-.79-.463-1.584-.712-2.37a.954.954 0 01.091-.818c.986-1.736 1.275-3.584.854-5.538-1.055-4.89-6.505-7.513-10.982-5.286-3.24 1.612-4.921 5.141-4.13 8.687a7.72 7.72 0 006.855 5.99c1.815.164 3.492-.272 5.011-1.285a.779.779 0 01.79-.083c.745.306 1.493.599 2.28.913z" fill="#fff"/><path d="M5.81 9.032a1.273 1.273 0 01-1.287 1.275A1.273 1.273 0 013.249 9.02a1.272 1.272 0 011.287-1.274c.713 0 1.276.57 1.274 1.287zm1.924-.002a1.271 1.271 0 011.277-1.285 1.272 1.272 0 011.284 1.277 1.272 1.272 0 01-1.277 1.285A1.273 1.273 0 017.734 9.03zm5.778-1.285c.71.002 1.272.574 1.27 1.292a1.273 1.273 0 01-1.293 1.27 1.273 1.273 0 01-1.27-1.293 1.273 1.273 0 011.293-1.27z" fill="#fff"/></svg>