<svg width="18" height="18" fill="none" xmlns="http://www.w3.org/2000/svg"><g clip-path="url(#clip0_86_210)" fill="#fff"><path d="M14.872 18H3.132c-.038-.012-.076-.03-.115-.035-1.676-.203-3.009-1.69-3.01-3.376C0 11.34-.009 8.087.01 4.836c.008-1.361.66-2.373 1.84-3.041.53-.302 1.113-.415 1.72-.416h.581v-.166c.005-.222-.018-.449.02-.666.058-.346.4-.575.754-.542a.703.703 0 01.631.685c.005.226.001.452.001.675h6.892c0-.196-.006-.377.002-.558.005-.121.01-.248.05-.36a.7.7 0 011.351.246c.005.225.001.451.001.688.262 0 .496-.006.73 0a3.483 3.483 0 013.325 2.68c.034.134.062.27.093.404v10.44c-.012.033-.029.064-.034.097-.215 1.31-.938 2.228-2.156 2.742-.296.125-.624.173-.938.256zm1.723-11.045H1.409v7.464c0 1.27.893 2.172 2.163 2.173 3.62.002 7.24.001 10.859-.001.169 0 .342-.011.506-.048.999-.22 1.657-1.044 1.657-2.07.002-2.449 0-4.898 0-7.347v-.171zm-2.743-4.138c0 .467.004.924-.001 1.38a.687.687 0 01-.557.655.7.7 0 01-.845-.703c-.003-.444 0-.887 0-1.34H5.556v.183c0 .393.003.785-.001 1.177a.701.701 0 01-1.403.007c-.005-.38-.002-.761-.002-1.142v-.219c-1.94-.229-2.94.993-2.722 2.702h15.148c.217-1.785-.86-2.932-2.725-2.7z"/><path d="M13.156 9.001c.234 0 .468-.003.703 0a.702.702 0 01.008 1.402 65.46 65.46 0 01-1.423.002.706.706 0 01-.692-.698.708.708 0 01.702-.705c.234-.003.468 0 .702 0zm-4.154 4.147c.24 0 .48-.005.72.002.372.01.672.323.676.695.003.367-.3.698-.667.705-.486.01-.972.009-1.458 0a.701.701 0 01.01-1.4c.24-.006.48-.002.72-.002zM4.86 9c.234 0 .468-.002.702.001.38.006.689.322.69.7a.704.704 0 01-.687.703c-.474.005-.948.005-1.422 0A.702.702 0 014.14 9c.24-.003.48 0 .72 0zm4.15.001c.235 0 .469-.003.703.001.377.007.688.33.684.706a.704.704 0 01-.675.696c-.48.007-.96.006-1.44 0a.7.7 0 01-.683-.705.7.7 0 01.691-.697c.241-.004.48 0 .72 0zm-4.147 4.148c.234 0 .469-.004.702 0a.703.703 0 01.687.703.707.707 0 01-.691.7 55.26 55.26 0 01-1.422 0 .705.705 0 01-.686-.705.699.699 0 01.69-.698c.24-.004.48 0 .72 0zm8.292.001c.24 0 .48-.006.72 0a.7.7 0 01.675.694c.004.37-.298.7-.665.707-.491.009-.983.01-1.474 0-.366-.009-.669-.35-.66-.714a.703.703 0 01.667-.687c.246-.007.491 0 .737 0z"/></g><defs><clipPath id="clip0_86_210"><path fill="#fff" d="M0 0h18v18H0z"/></clipPath></defs></svg>