<svg width="59" height="59" fill="none" xmlns="http://www.w3.org/2000/svg"><path d="M4.476 59c-.51-.333-.742-.8-.849-1.408-1.185-6.801-2.395-13.6-3.594-20.4-.145-.814.192-1.368 1.01-1.523 2.037-.382 4.073-.78 6.124-1.062 2.004-.276 3.683 1.027 4.103 3.042l.136.642 3.79-1.303c-.126-1.294-.316-2.543-.357-3.798-.091-2.745.626-5.313 1.878-7.743 2.316-4.502 4.62-9.011 6.953-13.505.232-.447.21-.775-.01-1.205a508.738 508.738 0 01-3.302-6.582c-.6-1.215-.423-2.428.449-3.292a2.673 2.673 0 013.085-.508c.534.26 1.04.576 1.558.87.976.554 1.31.537 2.17-.188C28.841.006 30.182-.325 31.674.362c.412.19.773.495 1.153.755.651.446 1.155.436 1.789-.043 1.803-1.366 3.205-1.42 5.022-.037.898.685 1.688.787 2.603.12.386-.281.825-.489 1.246-.718 1.191-.65 2.384-.527 3.297.331.9.845 1.116 2.066.532 3.276a505.848 505.848 0 01-3.322 6.765c-.192.383-.198.67 0 1.059a3348.86 3348.86 0 017.33 14.54c.23.46.415.95.577 1.44.21.644-.072 1.244-.651 1.475-.57.228-1.168-.035-1.474-.65-2.576-5.186-5.156-10.37-7.714-15.566-.215-.437-.45-.607-.948-.604-4.84.02-9.683.017-14.524.003-.451-.002-.707.112-.928.545-2.292 4.514-4.61 9.017-6.928 13.518-1.484 2.882-1.97 5.906-1.345 9.097.021.112.049.225.082.334.016.054.052.1.027.055 1.347-.28 2.644-.664 3.966-.8 2.895-.296 5.493.575 7.828 2.282 2.572 1.882 5.132 3.782 7.727 5.632 1.26.896 2.271 1.899 2.25 3.573 1.746.193 3.216-.235 4.448-1.482 2.685-2.72 5.395-5.416 8.1-8.117 1.465-1.462 3.255-1.808 4.936-.943 1.018.523 1.71 1.337 2.038 2.449.054.18.136.352.205.528v1.151c-.218.882-.583 1.685-1.182 2.386-1.396 1.637-2.759 3.3-4.156 4.936-1.298 1.516-2.522 3.117-3.959 4.49-3.273 3.125-7.262 4.552-11.777 4.548-5.167-.004-10.335-.001-15.502-.001-1.05 0-1.593-.4-1.585-1.163.005-.764.534-1.14 1.604-1.14 5.187 0 10.374.007 15.56-.003 4.309-.01 8-1.503 10.91-4.72 1.456-1.607 2.819-3.299 4.219-4.957 1.04-1.232 2.093-2.455 3.104-3.712.889-1.105.387-2.584-.95-2.89-.76-.175-1.336.169-1.85.685-2.712 2.72-5.434 5.43-8.142 8.155-1.002 1.008-2.161 1.758-3.561 1.986-.978.16-1.988.107-2.984.163-.197.012-.442.036-.576.155-1.375 1.21-2.855 1.251-4.432.462-1.938-.972-3.904-1.89-5.813-2.917-1.316-.709-2.643-1.205-4.162-1.01-.13.017-.268-.007-.401-.028-.572-.085-.986-.54-1-1.09-.015-.54.376-1.072.954-1.118 1.47-.115 2.926-.197 4.324.536 2.36 1.238 4.756 2.407 7.162 3.559.395.189.96.301 1.354.17 1.042-.348 1.084-1.61.114-2.322-2.817-2.067-5.635-4.135-8.464-6.184-2.179-1.578-4.611-2.185-7.248-1.61-1.34.294-2.636.81-3.944 1.248-1.595.534-3.184 1.09-4.82 1.652l.69 3.946c.539 3.08 1.103 6.155 1.605 9.24.273 1.677-.707 3.348-2.282 3.907-.733.26-1.53.35-2.301.5-1.408.276-2.817.539-4.224.807-.267.003-.536.003-.806.003zm29.397-48.788c2.439 0 4.876-.009 7.314.008.395.003.61-.105.788-.48.81-1.715 1.659-3.412 2.493-5.116.236-.482.5-.954.692-1.452.082-.212.013-.482.014-.726-.225.022-.482-.017-.671.078-.565.283-1.081.67-1.659.918-.553.238-1.149.437-1.744.506-1.101.126-1.98-.446-2.83-1.075-.942-.698-1.323-.678-2.247.03-1.467 1.126-3.064 1.148-4.566.064-1.246-.9-1.407-.889-2.647.082-1.295 1.013-2.68 1.148-4.137.38-.492-.259-.953-.58-1.454-.816-.225-.105-.517-.072-.778-.1.022.263-.03.562.078.784 1.052 2.152 2.14 4.287 3.198 6.436.174.353.378.494.786.492 2.456-.023 4.913-.013 7.37-.013zm-31.4 27.534L5.788 56.52c1.718-.316 3.382-.584 5.028-.94.784-.17 1.12-.855.973-1.705-.64-3.666-1.285-7.33-1.929-10.994-.265-1.511-.526-3.022-.8-4.533-.186-1.03-.717-1.574-1.589-1.452-1.647.231-3.283.552-4.996.849z" fill="#000"/><path d="M29.014 31.262c-.035-.786.327-1.278 1.001-1.362.637-.08 1.212.345 1.253 1.12.089 1.63 1.898 2.424 3.172 2.078 1.1-.3 1.881-1.175 1.834-2.145-.05-1.023-.953-1.871-2.09-2.049-.863-.135-1.77-.224-2.557-.567-1.818-.795-2.726-2.396-2.608-4.27.109-1.707 1.331-3.217 3.119-3.826.29-.098.48-.176.5-.567.037-.775.545-1.247 1.183-1.22.632.028 1.073.48 1.086 1.243.007.414.26.447.527.547 1.793.665 2.884 1.905 3.12 3.834.099.8-.321 1.387-1.024 1.466-.637.073-1.14-.39-1.248-1.148-.154-1.071-.76-1.772-1.758-2.037-1.063-.281-2.206.067-2.812.855-.986 1.28-.1 3.045 1.63 3.315.9.141 1.843.247 2.666.603 1.678.729 2.684 2.46 2.565 4.083-.134 1.84-1.322 3.364-3.11 3.964-.334.111-.554.214-.57.642-.023.588-.493.993-1.052 1.03-.537.035-1.067-.331-1.142-.917-.062-.48-.287-.65-.713-.795-1.704-.586-2.897-2.177-2.973-3.877zm23.735 1.368c-.015.608-.563 1.14-1.164 1.128a1.153 1.153 0 01-1.117-1.162c.011-.619.541-1.137 1.153-1.126.607.012 1.142.563 1.128 1.16zM17.636 54.396c.605.01 1.138.556 1.126 1.158-.01.601-.561 1.138-1.16 1.127-.604-.012-1.137-.559-1.125-1.16.011-.607.556-1.135 1.16-1.125zm-9.388-3.081c.605.006 1.132.543 1.129 1.152a1.144 1.144 0 01-1.145 1.125A1.13 1.13 0 017.11 52.45c.005-.614.53-1.138 1.138-1.134z" fill="#000"/></svg>