<svg width="94" height="67" fill="none" xmlns="http://www.w3.org/2000/svg"><g clip-path="url(#clip0_49_169)" fill="#000"><path d="M0 7.132c.537-.765 1.27-.977 2.198-.975 19.426.022 38.85.015 58.278.017 1.739 0 2.17.43 2.173 2.153.002 2.861 0 5.72 0 8.68.417.023.767.06 1.118.06 4.618.004 9.239.024 13.857-.013 1.097-.01 1.81.37 2.406 1.303 4.434 6.934 8.923 13.836 13.354 20.773.354.552.577 1.292.584 1.944.047 5.334.027 10.668.025 15.999 0 1.671-.498 2.157-2.205 2.157-2.413.003-4.827 0-7.272 0-.17.562-.304 1.09-.488 1.596-1.393 3.838-5.111 6.335-9.16 6.162-4.194-.178-7.692-2.944-8.749-6.963-.142-.543-.292-.814-.937-.812-11.166.022-22.33.015-33.497.017-.12 0-.24.015-.4.027-1.398 4.882-4.466 7.86-9.737 7.682-4.875-.166-7.69-3.09-8.964-7.708-3.443 0-6.899-.025-10.352.014-.974.012-1.73-.237-2.234-1.09C0 41.15 0 24.142 0 7.132zM3.193 9.33v40.573h7.728V53H3.203v3.113h9.373c1.852-5.212 4.749-7.697 9.06-7.814 1.948-.051 3.756.44 5.391 1.498 2.296 1.488 3.63 3.643 4.2 6.25h28.216v-3.081H32.946v-3.108h26.51v-34.34H6.327v-3.135H59.45V9.326c-18.78.003-37.493.003-56.258.003zm82.993 40.46h4.682v-8.018c0-1.246-.044-1.29-1.29-1.29-7.22 0-14.44.002-21.659-.003-1.643 0-2.129-.486-2.131-2.128-.005-4.298-.005-8.595 0-12.89.002-1.633.495-2.124 2.139-2.126 3.458-.005 6.913-.003 10.372-.003h1.172c-.594-.933-1.111-1.674-1.55-2.455-.292-.52-.65-.694-1.249-.69-4.343.027-8.686.013-13.032.015-.27 0-.54.03-.84.047v35.816h3.052c1.915-5.224 4.758-7.75 9.067-7.736 5.212.018 8.275 2.881 9.626 7.736h6.26v-3.12h-4.616c-.003-1.053-.003-1.989-.003-3.154zm2.234-12.465c-.07-.193-.088-.283-.135-.354-2.16-3.355-4.309-6.717-6.509-10.045-.179-.271-.696-.442-1.06-.447-3.604-.032-7.212-.02-10.817-.017-.295 0-.592.024-.893.037v10.826H88.42zM75.18 63.883c3.44.012 6.261-2.764 6.29-6.187.03-3.394-2.793-6.25-6.212-6.286-3.465-.035-6.327 2.795-6.322 6.252.007 3.44 2.788 6.21 6.244 6.22zm-53.295 0a6.249 6.249 0 006.316-6.155c.061-3.423-2.81-6.319-6.267-6.319-3.42 0-6.251 2.808-6.273 6.224-.022 3.41 2.781 6.225 6.224 6.25zM0 0h3.06v3.11H0V0zm28.21.005c0 .884.034 1.705-.025 2.516-.015.186-.324.404-.544.509-.175.083-.42.02-.636.02H6.32V.004h21.89z"/><path d="M76.714 56.188v2.989h-3.038v-2.989h3.038zm-53.258-.004v2.998H20.45v-2.998h3.006z"/></g><defs><clipPath id="clip0_49_169"><path fill="#fff" d="M0 0h94v67H0z"/></clipPath></defs></svg>