<svg width="200" height="70" fill="none" xmlns="http://www.w3.org/2000/svg"><path fill="#34383D" d="M0 0h200v70H0z"/><path d="M56.07 44.934h13.477V48H52.3V19.562h3.77v25.372zm38.34-10.235c0 2.787-.469 5.222-1.406 7.305-.938 2.07-2.266 3.652-3.985 4.746-1.718 1.094-3.723 1.64-6.015 1.64-2.24 0-4.225-.546-5.957-1.64-1.732-1.107-3.08-2.676-4.043-4.707-.95-2.044-1.439-4.408-1.465-7.09v-2.05c0-2.735.475-5.15 1.426-7.247.95-2.096 2.291-3.698 4.023-4.804 1.745-1.12 3.737-1.68 5.977-1.68 2.278 0 4.284.553 6.016 1.66 1.744 1.094 3.085 2.689 4.023 4.785.937 2.084 1.406 4.512 1.406 7.285V34.7zm-3.73-1.836c0-3.372-.677-5.957-2.032-7.754-1.354-1.81-3.248-2.715-5.683-2.715-2.37 0-4.238.905-5.606 2.715-1.354 1.797-2.05 4.297-2.09 7.5v2.09c0 3.268.684 5.84 2.051 7.715 1.38 1.862 3.275 2.793 5.684 2.793 2.422 0 4.297-.879 5.625-2.637 1.328-1.77 2.012-4.303 2.05-7.597v-2.11zm30.35 11.407c-.963 1.38-2.311 2.415-4.043 3.105-1.718.677-3.724 1.016-6.015 1.016-2.318 0-4.375-.54-6.172-1.621-1.797-1.094-3.19-2.644-4.18-4.649-.977-2.005-1.478-4.33-1.504-6.973v-2.48c0-4.284.996-7.604 2.988-9.961 2.006-2.357 4.818-3.535 8.438-3.535 2.969 0 5.358.762 7.168 2.285 1.81 1.51 2.917 3.659 3.32 6.445h-3.75c-.703-3.763-2.942-5.644-6.719-5.644-2.513 0-4.42.885-5.722 2.656-1.289 1.758-1.94 4.31-1.953 7.656v2.325c0 3.19.729 5.729 2.187 7.617 1.459 1.875 3.431 2.812 5.918 2.812 1.406 0 2.637-.156 3.692-.468 1.054-.313 1.927-.84 2.617-1.583v-6.386h-6.582V33.84h10.312v10.43zm28.145-9.57c0 2.786-.469 5.22-1.406 7.304-.938 2.07-2.266 3.652-3.985 4.746-1.719 1.094-3.724 1.64-6.015 1.64-2.24 0-4.226-.546-5.958-1.64-1.731-1.107-3.079-2.676-4.042-4.707-.951-2.044-1.439-4.408-1.465-7.09v-2.05c0-2.735.475-5.15 1.425-7.247.951-2.096 2.292-3.698 4.024-4.804 1.745-1.12 3.737-1.68 5.976-1.68 2.279 0 4.284.553 6.016 1.66 1.745 1.094 3.086 2.689 4.024 4.785.937 2.084 1.406 4.512 1.406 7.285V34.7zm-3.731-1.837c0-3.372-.677-5.957-2.031-7.754-1.354-1.81-3.249-2.715-5.684-2.715-2.369 0-4.238.905-5.605 2.715-1.354 1.797-2.051 4.297-2.09 7.5v2.09c0 3.268.684 5.84 2.051 7.715 1.38 1.862 3.275 2.793 5.684 2.793 2.421 0 4.296-.879 5.625-2.637 1.328-1.77 2.011-4.303 2.05-7.597v-2.11z" fill="#fff"/></svg>