<svg width="18" height="18" viewBox="0 0 18 18" fill="none" xmlns="http://www.w3.org/2000/svg">
<path d="M0 9.10788C0.22797 5.1772 1.95082 2.31079 5.49904 0.789565C8.8118 -0.631065 11.9665 -0.11097 14.7764 2.15883C16.4699 3.52702 17.4704 5.342 17.8484 7.48231C18.1997 9.47066 17.8943 11.3718 16.9637 13.1654C16.8698 13.3468 16.8537 13.4982 16.9146 13.6903C17.2659 14.8075 17.6023 15.9301 17.9509 17.0484C18.0406 17.3363 18.0149 17.5894 17.7896 17.8002C17.5537 18.0212 17.2905 18.0378 16.9942 17.9169C15.9894 17.507 14.9793 17.111 13.975 16.7001C13.8368 16.6434 13.7364 16.6471 13.6082 16.7242C12.0626 17.6515 10.3841 18.0651 8.5865 17.9912C4.55459 17.8254 1.06083 14.8637 0.246122 10.9057C0.117989 10.2824 0.0715409 9.64188 0 9.10788ZM16.3375 16.2576C16.3113 16.1613 16.2969 16.1045 16.2803 16.0484C16.0444 15.2575 15.8169 14.464 15.5676 13.6774C15.4736 13.3805 15.5062 13.1295 15.6594 12.8598C16.6455 11.124 16.9344 9.27643 16.5126 7.32179C15.4582 2.43279 10.0077 -0.190697 5.53107 2.03629C2.29144 3.64795 0.609699 7.17732 1.40039 10.7227C2.10245 13.8695 4.77829 16.3978 8.25603 16.7129C10.0712 16.8772 11.7482 16.4411 13.2671 15.4277C13.525 15.2559 13.7716 15.2281 14.0572 15.3453C14.8015 15.6513 15.5505 15.944 16.3375 16.2576Z" fill="white"/>
<path d="M5.81025 9.03203C5.80865 9.74422 5.23899 10.3082 4.52305 10.3071C3.81138 10.3055 3.24759 9.73565 3.24919 9.01919C3.2508 8.307 3.81992 7.74303 4.53639 7.74463C5.2486 7.7457 5.81185 8.31502 5.81025 9.03203Z" fill="white"/>
<path d="M7.73439 9.02935C7.73332 8.31342 8.29818 7.74517 9.01091 7.74463C9.72632 7.74356 10.2949 8.3086 10.2954 9.02186C10.2965 9.73779 9.73166 10.3066 9.01839 10.3071C8.30405 10.3077 7.73546 9.74207 7.73439 9.02935Z" fill="white"/>
<path d="M13.5121 7.74464C14.2227 7.74731 14.7838 8.31878 14.7811 9.03738C14.7785 9.74797 14.2067 10.3098 13.4886 10.3071C12.7785 10.3044 12.2169 9.73192 12.2196 9.01384C12.2228 8.30326 12.794 7.74196 13.5121 7.74464Z" fill="white"/>
</svg>
