<svg width="61" height="61" viewBox="0 0 61 61" fill="none" xmlns="http://www.w3.org/2000/svg">
<path d="M46.2285 61.0012C44.9975 60.751 43.8933 60.2803 43.0652 59.2751C42.3415 58.3964 41.9521 57.3896 41.9506 56.2682C41.9357 49.8955 41.9178 43.5214 41.9566 37.1488C41.9685 35.1233 42.9757 33.6013 44.8453 32.8045C46.6642 32.0286 48.3936 32.3458 49.8917 33.6534C50.969 34.5931 51.4271 35.8382 51.4763 37.1904C52.2731 37.5434 53.0266 37.8785 53.7966 38.2195C53.7876 38.227 53.8369 38.2032 53.8369 38.1793C53.7653 35.0861 53.8518 31.9794 53.5728 28.9041C53.2743 25.6232 51.9986 22.6133 50.1812 19.8566C50.0842 19.7092 49.841 19.5826 49.6619 19.5767C47.9862 19.5335 46.6001 18.8514 45.4049 17.7165C42.3803 14.8482 38.7619 13.131 34.7048 12.3477C29.4883 11.3409 24.533 12.1809 19.8358 14.6486C18.0616 15.5809 16.5501 16.8587 15.058 18.1693C14.0702 19.0375 12.9019 19.5022 11.5888 19.535C11.1262 19.5469 10.9024 19.7316 10.6846 20.1203C8.93131 23.2492 8.07035 26.6538 7.5123 30.158C7.08555 32.8373 7.14523 35.5344 7.16463 38.2404C7.95397 37.8889 8.72092 37.5479 9.53264 37.1875C9.58188 35.8367 10.04 34.5916 11.1173 33.6519C12.6154 32.3458 14.3447 32.0256 16.1637 32.803C18.0572 33.6132 19.0076 35.1561 19.0599 37.2068C19.1002 38.7751 19.0688 40.3433 19.0688 41.9115C19.0688 46.3585 18.9912 50.8085 19.0972 55.2525C19.1643 58.097 17.9109 60.4337 14.7804 60.9982C14.4626 60.9982 14.1448 60.9982 13.827 60.9982C13.7912 60.9803 13.7583 60.9505 13.721 60.9461C11.3918 60.6467 9.66394 58.7106 9.53413 56.4454C9.52518 56.2861 9.29688 56.0582 9.12529 56.0031C7.03929 55.3434 5.65609 53.9881 5.02343 51.8927C4.92793 51.5784 4.79215 51.4682 4.46388 51.4265C1.64078 51.0602 0.00988202 49.1971 0.0083899 46.351C-0.000562865 41.6896 -0.00354712 37.0237 0.00540564 32.3592C0.00988202 29.8498 0.281449 27.3701 0.893221 24.9321C1.75269 21.5142 3.18214 18.354 5.1428 15.426C5.30843 15.1788 5.38303 14.805 5.3517 14.5042C5.14131 12.4549 5.72473 10.6931 7.2079 9.26336C12.4438 4.22064 18.7376 1.37759 25.8893 0.344025C26.8279 0.2085 27.7724 0.113186 28.7139 0C29.9046 0 31.0969 0 32.2876 0C32.4398 0.0342536 32.592 0.0789322 32.7457 0.101271C34.4706 0.348493 36.2208 0.484018 37.9189 0.859318C43.9321 2.18925 49.2486 4.88486 53.71 9.18294C55.1902 10.6097 55.8811 12.3358 55.6319 14.3865C55.5737 14.8631 55.6826 15.2131 55.9378 15.5913C58.2879 19.0748 59.8442 22.8844 60.5335 27.0335C60.7305 28.222 60.8469 29.4238 60.9991 30.6197C60.9991 36.1792 60.9991 41.7402 60.9991 47.2997C60.9797 47.334 60.9484 47.3667 60.9409 47.4025C60.5664 49.6617 58.7549 51.294 56.5182 51.434C56.1661 51.4563 56.0691 51.6216 55.9781 51.9195C55.3424 53.9836 53.9831 55.3448 51.918 55.9718C51.5688 56.0776 51.4584 56.231 51.4331 56.5765C51.3644 57.5475 51.0168 58.4143 50.4109 59.1872C49.5813 60.2461 48.4503 60.7435 47.1775 60.9997C46.8627 61.0012 46.5448 61.0012 46.2285 61.0012ZM31.0894 2.37243C24.3122 2.45583 18.566 4.08064 13.3286 7.41367C11.5664 8.5351 9.8803 9.78163 8.51799 11.3752C6.81846 13.3619 7.81968 16.4 10.3503 17.0627C11.7425 17.4276 12.8869 16.9481 13.9478 16.0188C15.049 15.0537 16.1681 14.0752 17.4066 13.3083C22.4052 10.2105 27.853 9.0355 33.6976 9.76823C36.7416 10.1495 39.6065 11.0862 42.3072 12.5353C44.2276 13.5659 45.8958 14.9271 47.5177 16.3687C48.5906 17.3219 49.8917 17.441 51.1973 16.8766C53.5981 15.8386 54.0413 12.7751 52.0612 10.8986C46.0226 5.17527 38.7351 2.58838 31.0894 2.37243ZM16.6814 46.704C16.6814 46.2676 16.6814 45.8298 16.6814 45.3934C16.6814 42.674 16.6934 39.9546 16.6754 37.2351C16.6665 35.7354 15.4832 34.6602 14.0538 34.8001C12.7855 34.9252 11.92 35.9529 11.9171 37.3677C11.9111 41.5362 11.9156 45.7047 11.9156 49.8747C11.9156 51.9597 11.9081 54.0432 11.9185 56.1282C11.9245 57.2735 12.5736 58.176 13.5733 58.4902C15.1565 58.9876 16.6665 57.8483 16.6754 56.1133C16.6934 52.9769 16.6814 49.8404 16.6814 46.704ZM49.0874 46.7055C49.0874 43.5691 49.0964 40.4326 49.0844 37.2962C49.0785 35.7697 47.9609 34.6974 46.521 34.7957C45.2318 34.885 44.3261 35.9305 44.3246 37.3662C44.3201 43.4603 44.3231 49.5545 44.3231 55.6502C44.3231 55.9078 44.3156 56.1669 44.338 56.4231C44.4245 57.4105 45.1005 58.2296 46.0375 58.5021C47.6102 58.9579 49.074 57.829 49.083 56.1148C49.0979 52.9784 49.0874 49.8419 49.0874 46.7055ZM6.64089 17.5185C4.50417 20.8679 3.12992 24.4868 2.6599 28.3947C2.09886 33.0577 2.45697 37.7534 2.40475 42.4342C2.40475 42.4476 2.42265 42.4625 2.41221 42.4476C3.17916 42.2421 3.93567 42.0411 4.73992 41.8251C4.72351 41.8594 4.75335 41.8251 4.75485 41.7894C4.76231 41.4915 4.76231 41.1936 4.76827 40.8973C4.82945 37.2485 4.57877 33.5923 5.1234 29.9585C5.5979 26.7863 6.38723 23.7065 7.67643 20.7636C7.94352 20.1545 8.26582 19.5707 8.54485 19.0122C7.8913 18.4999 7.28699 18.0263 6.64089 17.5185ZM52.5029 18.9914C52.5715 19.1239 52.6357 19.2654 52.7148 19.3994C55.1634 23.5099 56.2795 27.9673 56.2392 32.739C56.2153 35.5776 56.2347 38.4161 56.2347 41.2547C56.2347 41.4677 56.2347 41.6821 56.2347 41.8206C57.0658 42.0425 57.8208 42.2451 58.5982 42.4521C58.6027 42.3687 58.6162 42.2555 58.6162 42.1423C58.6162 38.7676 58.6311 35.3929 58.6102 32.0182C58.5878 28.1594 57.8044 24.4556 56.2108 20.9394C55.6752 19.7584 55.0142 18.6325 54.4084 17.4753C53.7339 18.0114 53.149 18.4761 52.5029 18.9914ZM9.50578 39.8056C8.14197 40.306 7.20044 41.4856 7.17508 42.8795C7.12882 45.4158 7.13031 47.955 7.17358 50.4928C7.19746 51.9195 8.20315 53.175 9.50578 53.5637C9.50578 48.9871 9.50578 44.418 9.50578 39.8056ZM51.5121 39.8339C51.5121 44.4373 51.5121 49.0005 51.5121 53.58C52.87 53.093 53.8115 51.8867 53.8324 50.463C53.8712 47.9461 53.8727 45.4262 53.8309 42.9093C53.807 41.4811 52.8118 40.2331 51.5121 39.8339ZM4.73992 44.348C3.37761 44.3792 2.35252 45.447 2.39132 46.7666C2.42862 48.0399 3.46565 49.0467 4.73992 49.0303C4.73992 47.4695 4.73992 45.9087 4.73992 44.348ZM56.2556 49.0541C57.6955 48.9692 58.6908 47.888 58.6087 46.5521C58.5311 45.2951 57.4553 44.2943 56.2556 44.3837C56.2556 45.9251 56.2556 47.4665 56.2556 49.0541Z" fill="black"/>
</svg>
